<svg id="Capa_1" enable-background="new 0 0 512 512" height="512" viewBox="0 0 512 512" width="512" xmlns="http://www.w3.org/2000/svg"><g><path d="m403.69 332.277h-20.768v-68.029h20.768c16.569 0 30 13.431 30 30v8.029c0 16.569-13.431 30-30 30z" fill="#548eb5"/><path d="m218.742 213.483h74.519v60.922h-74.519z" fill="#447d99"/><g><path d="m256.596 28.183c-4.206 0-7.615-3.409-7.615-7.615v-12.953c0-4.206 3.409-7.615 7.615-7.615s7.615 3.409 7.615 7.615v12.953c0 4.206-3.409 7.615-7.615 7.615z" fill="#f37c7b"/></g><path d="m403.69 176.423h-20.768v-68.029h20.768c16.569 0 30 13.431 30 30v8.029c0 16.568-13.431 30-30 30z" fill="#548eb5"/><path d="m290.016 50.568v20.768h-68.029v-20.768c0-16.569 13.431-30 30-30h8.029c16.569 0 30 13.432 30 30z" fill="#548eb5"/><path d="m393.08 91.18v102.46c0 16.57-13.44 30-30 30h-214.15c-16.57 0-30-13.43-30-30v-102.46c0-16.57 13.43-30 30-30h214.15c16.56 0 30 13.43 30 30z" fill="#f37c7b"/><circle cx="197.791" cy="121.442" fill="#eefaff" r="20.307"/><circle cx="310.324" cy="121.442" fill="#eefaff" r="20.307"/><path d="m118.928 264.248h274.148v166.855h-274.148z" fill="#f37c7b"/><path d="m239.045 420.614v10.489h-120.117v-61.257h69.349c27.994 0 50.768 22.774 50.768 50.768z" fill="#ee6261"/><path d="m393.076 369.846v61.257h-120.118v-10.489c0-27.994 22.775-50.768 50.768-50.768z" fill="#ee6261"/><path d="m108.313 176.423h20.768v-68.029h-20.768c-16.569 0-30 13.431-30 30v8.029c0 16.568 13.432 30 30 30z" fill="#548eb5"/><path d="m108.313 332.277h20.768v-68.029h-20.768c-16.569 0-30 13.431-30 30v8.029c0 16.569 13.432 30 30 30z" fill="#548eb5"/><path d="m118.928 264.248h50.768v166.855h-50.768z" fill="#ee6261"/><g fill="#548eb5"><path d="m218.74 420.16v61.84c0 16.57-13.43 30-30 30h-80.43c-16.57 0-30-13.43-30-30v-61.84c0-16.57 13.43-30 30-30h80.43c16.57 0 30 13.43 30 30z"/><path d="m403.69 512h-80.429c-16.569 0-30-13.431-30-30v-61.844c0-16.569 13.431-30 30-30h80.429c16.569 0 30 13.431 30 30v61.844c0 16.569-13.431 30-30 30z"/><path d="m433.69 420.16v61.84c0 16.57-13.43 30-30 30h-80.43c-16.57 0-30-13.43-30-30v-61.84c0-16.57 13.43-30 30-30h80.43c16.57 0 30 13.43 30 30z"/></g><path d="m159.54 512h-51.23c-16.57 0-30-13.43-30-30v-61.84c0-16.57 13.43-30 30-30h50.84c-16.64.2-30.07 13.76-30.07 30.45v60.93c0 16.82 13.64 30.46 30.46 30.46z" fill="#447d99"/><path d="m374.49 512h-51.23c-16.57 0-30-13.43-30-30v-61.84c0-16.57 13.43-30 30-30h50.84c-16.64.2-30.07 13.76-30.07 30.45v60.93c0 16.82 13.64 30.46 30.46 30.46z" fill="#447d99"/><path d="m200.16 223.63-.04.01h-51.19c-16.57 0-30-13.43-30-30v-102.46c0-16.57 13.43-30 30-30h51.23c-16.83 0-30.46 13.63-30.46 30.46v101.53c0 16.83 13.63 30.46 30.46 30.46z" fill="#ee6261"/><g><g><path d="m78.31 464.02h140.43v15.23h-140.43z" fill="#447d99"/></g></g><g><g><path d="m78.31 423.49h140.43v15.23h-140.43z" fill="#447d99"/></g></g><g><g><path d="m293.26 464.02h140.43v15.23h-140.43z" fill="#447d99"/></g></g><g><g><path d="m293.26 423.49h140.43v15.23h-140.43z" fill="#447d99"/></g></g><path d="m27.349 363.889h43.964c3.866 0 7-3.134 7-7v-118.755c0-3.866-3.134-7-7-7h-43.964c-3.866 0-7 3.134-7 7v118.755c0 3.866 3.134 7 7 7z" fill="#eefaff"/><path d="m57.914 363.886h-30.46c-3.919 0-7.108-3.178-7.108-7.108v-118.533c0-3.93 3.188-7.108 7.108-7.108h30.461c-3.919 0-7.108 3.178-7.108 7.108v118.533c0 3.93 3.188 7.108 7.107 7.108z" fill="#dff1f7"/><path d="m440.69 363.889h43.964c3.866 0 7-3.134 7-7v-118.755c0-3.866-3.134-7-7-7h-43.964c-3.866 0-7 3.134-7 7v118.755c0 3.866 3.134 7 7 7z" fill="#eefaff"/><path d="m471.259 363.886h-30.461c-3.929 0-7.108-3.178-7.108-7.108v-118.533c0-3.93 3.178-7.108 7.108-7.108h30.461c-3.929 0-7.108 3.178-7.108 7.108v118.533c0 3.93 3.178 7.108 7.108 7.108z" fill="#dff1f7"/><path d="m332.154 327.115v-.615c0-11.046-8.954-20-20-20h-112.305c-11.046 0-20 8.954-20 20v.615c0 11.046 8.954 20 20 20h112.304c11.047 0 20.001-8.954 20.001-20z" fill="#eefaff"/><g><path d="m290.016 189.114h-66.841c-4.206 0-7.615-3.409-7.615-7.615s3.409-7.615 7.615-7.615h66.841c4.206 0 7.615 3.409 7.615 7.615s-3.408 7.615-7.615 7.615z" fill="#eefaff"/></g></g></svg>