<svg id="Layer_1" height="512" viewBox="0 0 512 512" width="512" xmlns="http://www.w3.org/2000/svg"><g><g><path d="m203.194 459.796c-6.386 0-12.155-4.397-13.636-10.888l-27.017-118.381c-1.721-7.538 2.996-15.044 10.534-16.765 7.539-1.72 15.044 2.996 16.764 10.534l27.017 118.381c1.721 7.538-2.996 15.044-10.534 16.765-1.048.24-2.096.354-3.128.354z"/></g><g><path d="m203.22 459.796c-1.037 0-2.09-.116-3.144-.357l-118.054-27.09c-7.536-1.729-12.243-9.24-10.514-16.776 1.73-7.536 9.241-12.239 16.777-10.515l118.054 27.09c7.536 1.729 12.243 9.24 10.514 16.776-1.488 6.482-7.254 10.872-13.633 10.872z"/></g><g><path d="m203.22 459.796c-1.037 0-2.09-.116-3.144-.357l-118.054-27.09c-7.536-1.729-12.243-9.24-10.514-16.776 1.73-7.536 9.241-12.239 16.777-10.515l118.054 27.09c7.536 1.729 12.243 9.24 10.514 16.776-1.488 6.482-7.254 10.872-13.633 10.872z"/></g><g><path d="m199.765 456.344c-3.589 0-7.178-1.372-9.913-4.114l-70.521-70.717c-36.133-36.486-56.013-84.818-56.013-136.126 0-106.52 86.436-193.18 192.68-193.18 106.246 0 192.683 86.66 192.683 193.18 0 36.228-10.084 71.558-29.162 102.171-18.548 29.762-44.796 53.933-75.909 69.899-6.877 3.53-15.317.816-18.848-6.062s-.816-15.317 6.063-18.848c26.608-13.656 49.06-34.334 64.93-59.799 16.306-26.165 24.925-56.374 24.925-87.361 0-91.08-73.876-165.18-164.683-165.18-90.805 0-164.68 74.1-164.68 165.18 0 43.881 17.002 85.215 47.874 116.389l70.486 70.683c5.46 5.475 5.448 14.339-.027 19.799-2.732 2.723-6.308 4.086-9.885 4.086z"/></g><g><path d="m199.765 456.344c-3.589 0-7.178-1.372-9.913-4.114l-70.521-70.717c-36.133-36.486-56.013-84.818-56.013-136.126 0-106.52 86.436-193.18 192.68-193.18 106.246 0 192.683 86.66 192.683 193.18 0 36.228-10.084 71.558-29.162 102.171-18.548 29.762-44.796 53.933-75.909 69.899-6.877 3.53-15.317.816-18.848-6.062s-.816-15.317 6.063-18.848c26.608-13.656 49.06-34.334 64.93-59.799 16.306-26.165 24.925-56.374 24.925-87.361 0-91.08-73.876-165.18-164.683-165.18-90.805 0-164.68 74.1-164.68 165.18 0 43.881 17.002 85.215 47.874 116.389l70.486 70.683c5.46 5.475 5.448 14.339-.027 19.799-2.732 2.723-6.308 4.086-9.885 4.086z"/></g></g></svg>