<svg id="Layer_1" height="512" viewBox="0 0 512 512" width="512" xmlns="http://www.w3.org/2000/svg"><g><g><path d="m308.803 459.798c-1.032 0-2.079-.114-3.128-.354-7.538-1.721-12.254-9.227-10.534-16.765l27.02-118.387c1.721-7.539 9.225-12.253 16.765-10.534 7.538 1.721 12.254 9.227 10.534 16.765l-27.02 118.387c-1.482 6.489-7.252 10.888-13.637 10.888z"/></g><g><path d="m308.777 459.798c-6.38 0-12.145-4.389-13.633-10.871-1.729-7.536 2.978-15.048 10.514-16.777l118.055-27.092c7.533-1.723 15.047 2.978 16.777 10.514 1.729 7.536-2.978 15.048-10.514 16.777l-118.054 27.091c-1.054.242-2.108.358-3.145.358z"/></g><g><path d="m312.235 456.34c-3.576 0-7.153-1.362-9.886-4.087-5.475-5.459-5.487-14.324-.027-19.799l70.52-70.717c30.839-31.136 47.841-72.469 47.841-116.353 0-91.08-73.877-165.18-164.684-165.18-90.806 0-164.682 74.1-164.682 165.18 0 30.988 8.619 61.197 24.925 87.363 15.87 25.465 38.322 46.143 64.931 59.799 6.879 3.53 9.593 11.969 6.062 18.848s-11.968 9.596-18.848 6.062c-31.112-15.967-57.36-40.139-75.908-69.9-19.078-30.612-29.162-65.943-29.162-102.172 0-106.52 86.437-193.18 192.682-193.18 106.246 0 192.684 86.66 192.684 193.18 0 51.312-19.881 99.644-55.98 136.09l-70.554 70.751c-2.735 2.743-6.325 4.115-9.914 4.115z"/></g></g></svg>