<svg clip-rule="evenodd" fill-rule="evenodd" height="512" stroke-linejoin="round" stroke-miterlimit="2" viewBox="0 0 512 512" width="512" xmlns="http://www.w3.org/2000/svg"><g transform="translate(-1818 -5808)"><g transform="translate(21.692 -269.921)"><g transform="matrix(.036 .645 -.639 .035 2366.52 6174.28)"><path d="m281.218 188.41 67.59 67.59s-67.59 67.59-67.59 67.59c-9.711 9.711-9.777 25.546-.147 35.339 9.631 9.792 25.333 9.859 35.044.147l85.333-85.333c4.693-4.692 7.332-11.079 7.332-17.743s-2.639-13.051-7.332-17.743l-85.333-85.333c-9.711-9.712-25.413-9.645-35.044.147-9.63 9.793-9.564 25.628.147 35.339z"/></g><g transform="matrix(0 .964 -.964 0 6597.92 5625.06)"><path d="m832.937 4926.32c-100.094 0-181.357-81.27-181.357-181.36s81.263-181.36 181.357-181.36c9.164 0 16.603-7.44 16.603-16.6s-7.439-16.6-16.603-16.6c-118.421 0-214.564 96.14-214.564 214.56s96.143 214.56 214.564 214.56c9.164 0 16.603-7.43 16.603-16.6 0-9.16-7.439-16.6-16.603-16.6z"/></g></g></g></svg>