<svg enable-background="new 0 0 512 512" height="512" viewBox="0 0 512 512" width="512" xmlns="http://www.w3.org/2000/svg" xmlns:xlink="http://www.w3.org/1999/xlink"><linearGradient id="SVGID_1_" gradientUnits="userSpaceOnUse" x1="256" x2="256" y1="509.745" y2="2.255"><stop offset="0" stop-color="#923edc"/><stop offset=".682" stop-color="#3e63e3"/><stop offset="1" stop-color="#1675e7"/></linearGradient><g id="_x32_5_Turtle_Meat"><path d="m231.968 40.714c1.843-1.85 5.18-2.259 7.451 0 2.342 2.112 1.703 6.079 0 7.448-1.944 2.044-5.272 2.185-7.451 0-1.733-1.392-2.302-5.146 0-7.448zm40.577 7.449c1.752 1.762 4.906 2.355 7.502 0 2.097-2.097 1.95-5.498 0-7.448-1.533-1.541-3.834-1.966-5.758-1.164-3.423 1.312-4.388 5.967-1.744 8.612zm-168.485 343.551c-12.943-28.137-19.844-59.407-19.844-91.767 0-30.38 6.023-61.325 19.542-91.057-24.811-18.881-39.532-48.395-41.218-78.725-.939-18.047 5.32-31.808 16.733-36.826 16.99-7.597 31.746 4.865 43.864 17.742 9.846 10.485 19.678 21.023 29.469 31.518 15.122-13.076 32.068-23.175 50.23-29.892-9.613-11.939-14.876-26.674-14.876-42.334 0-37.561 30.521-68.118 68.038-68.118s68.043 30.557 68.043 68.118c0 15.66-5.263 30.395-14.877 42.335 18.163 6.717 35.11 16.816 50.231 29.891 9.79-10.495 19.618-21.032 29.464-31.515 12.205-12.961 26.973-25.3 43.9-17.732 11.383 5.005 17.642 18.766 16.708 36.792 0 .008-.005.015-.005.021-1.693 30.341-16.399 59.835-41.219 78.724 12.589 27.667 19.543 57.547 19.543 91.058 0 32.018-6.745 63.277-19.848 91.765 26.477 20.434 39.904 49.838 41.525 78.89.939 18.044-5.315 31.8-16.728 36.823-16.942 7.561-31.582-4.685-43.843-17.703-10.028-10.673-20.018-21.371-29.964-32.027-30.624 26.284-67.257 39.137-102.928 39.137-35.301 0-72.088-12.669-102.925-39.136-9.945 10.654-19.932 21.351-29.936 31.992-12.226 12.992-27.141 25.206-43.895 17.727-11.383-5.005-17.642-18.764-16.708-36.792 1.654-29.692 15.524-58.853 41.524-78.909zm5.752-13.341 52.312-30.226v-96.244l-52.353-30.279c-10.262 25.471-14.988 52.568-14.988 78.323 0 27.013 4.971 53.488 15.029 78.426zm292.416-156.749-52.358 30.281v96.239l52.316 30.232c10.014-24.837 15.03-51.263 15.03-78.428.001-28.086-5.393-54.492-14.988-78.324zm-4.283 166.576-53.374-30.909-83.29 48.252v80.566c61.098-2.283 111.188-43.4 136.664-97.909zm-147.231 97.91v-80.566l-83.285-48.252-53.374 30.908c25.86 55.331 76.343 95.655 136.659 97.91zm88.574-234.192-83.29-48.223-83.285 48.22v96.21l83.285 48.078 83.29-48.081zm-78.007-138.061v80.644l83.29 48.03 53.397-30.785c-25.509-54.668-75.45-95.569-136.687-97.889zm-147.251 97.891 53.398 30.783 83.285-48.03v-80.645c-60.855 2.275-110.96 42.823-136.683 97.892zm289.281 189.575c-9.281 17.698-22.087 35.27-36.559 49.279 9.897 10.605 19.856 21.257 29.804 31.849 8.356 8.869 20.064 20.592 31.888 15.314.01-.003.021-.008.031-.013 8.514-3.743 10.975-16.186 10.433-26.584-1.457-26.158-13.668-52.139-35.597-69.845zm-36.118-251.597c14.449 14.091 27.244 31.754 36.397 49.435 20.717-16.597 33.794-42.318 35.319-69.568.542-10.395-1.919-22.835-10.433-26.578-11.93-5.343-23.617 6.495-31.908 15.294-9.816 10.453-19.621 20.958-29.375 31.417zm-168.666-79.353c0 14.561 5.335 28.201 15.087 38.743 12.769-3.712 27.838-6.055 42.383-6.055 14.494 0 29.612 2.353 42.388 6.055 9.752-10.542 15.087-24.182 15.087-38.743 0-31.733-25.784-57.55-57.476-57.55s-57.469 25.817-57.469 57.55zm-90.117 128.787c9.084-17.545 21.846-35.242 36.397-49.435-9.754-10.458-19.564-20.963-29.369-31.407-8.243-8.758-20.195-20.566-31.883-15.317-8.55 3.756-11.006 16.199-10.464 26.596 1.515 27.284 14.663 53.032 35.319 69.563zm-35.324 272.03c-.537 10.376 1.925 22.819 10.438 26.563 11.928 5.327 23.568-6.431 31.914-15.307 9.953-10.588 19.91-21.237 29.807-31.841-14.82-14.346-27.477-31.96-36.556-49.284-21.964 17.742-34.147 43.723-35.603 69.869z" fill="url(#SVGID_1_)"/></g></svg>